<svg xmlns="http://www.w3.org/2000/svg" width="256" height="256" fill="none" viewBox="0 0 256 256">
<!-- SVG created with Arrow, by QuiverAI (https://quiver.ai) -->
  <path d="m173.9 6h-142.9c-10.47 0-17.04 10.41-17.04 18.52 0 10.15 8.31 18.9 18.63 18.9h15.42l-44.93 63.34h26.81l-17.94 51.85 59.88-74.03h-28.53l13.75-40.34h75.45l-117.6 133.7c-3.6 4.18-5.09 8.66-5.09 12.7 0 9.44 7.39 17.06 18.18 17.06h80.27l-10.36 42.95 65.1-42.48h10.24c8.96 0 15.59-5.42 18.66-12.27l-0.83-14-8.87 5.8c-2.78 4.27-5.86 4.94-11.95 4.94h-11.58l-37.71 22.56 8.88-41.98h-60.64l117.3-135.1c3.26-3.72 4.49-7.89 4.49-12.62 0-9.34-6.74-19.52-17.02-19.52z" fill="url(#paint0_linear_1406_2410)"/>
  <path d="m172.9 8.61h-141.8c-9.26 0-15.61 8.95-15.61 16.3 0 9.18 7.93 16.42 16.8 16.42h17.7l-42.76 63.28h23.99l-12.99 42.1 49.67-59.62h-27.38l14.6-47.15h79.77l-118.1 140.4c-2.96 3.55-4.45 7.18-4.45 10.9 0 8.36 6.86 14.63 15.73 14.63h82.09l-8.11 39.18 59.88-39.91h10.23c8.12 0 14.59-6.04 16.56-12.35l-3.48-7.12-6.86 6.46c-2.4 2.62-5.19 3.68-10.3 3.68h-8.87l-40.19 22.56 8.64-38.15h-65.1l121.3-143.9c3.26-3.97 4.49-7.15 4.49-11.52 0-8.61-6.23-16.18-15.54-16.18z" stroke="url(#paint1_linear_1406_2410)" stroke-miterlimit="10" stroke-width="2.704"/>
  <path d="m172.2 10.21h-140.9c-8.43 0-14.21 7.69-14.21 14.7l117-1.6c11.81 0 19.08 9.8 19.08 19.3 0 6.04-1.72 10.15-5.48 14.51l-131.1 141.3c2.78 4.02 7.24 5.5 11.58 5.5h84.25l-7.39 37.47 55.03-39.18h12.02c7.33 0 13.62-5.75 14.79-11.17l-2.78-3.97-6.29 5.18c-2.34 2.06-5.12 2.79-10.66 2.79h-8.36l-36.78 20.81 6.74-37.64h-68.66l122.5-143.4c2.99-3.59 4.1-6.58 4.1-10.31 0-7.79-5.73-14.31-14.55-14.31z" fill="url(#paint2_linear_1406_2410)"/>
  <path d="m243.2 107.7-3.48-23.78c3.32-1.66 3.7-5.77 3.4-8.84-0.77-7.17-8.1-11.79-14.96-9.47l-16.23-17.54c2.78-6.31-1.91-14.21-10.28-13.54h-2.91l-5.67 13.08 0.6 3.3-8.56 21.71c-3.14 0.18-6.28 1.12-8.06 2.49l-6.98-7.26-2.01 5.07 7.81 8.17v6.31l-16.92 12.31c-7.81-4.26-15.8 1.05-16.7 7.42-0.6 4.22 1.01 6.78 3.41 8.78l-19.56 22.91c-1.49-0.17-2.81 0-3.8 0.29l-4.75-7.5-0.99 2 2.4 6.85c-1.49 2.99-1.41 6.25-0.36 9.24l-27.44 14.84 2.28 0.89 28.32-11.58c3.6 3.26 8.6 3.61 11.98 1.89l15.05 13.74c-2.12 5.63 1.25 11.55 8.34 12.98 7.57 1 11.59-5.31 10.48-10.85-0.54-2.87-1.98-4.59-3.76-5.89l6.57-16.48 13.61 31.38c-2.9 3.49-5.3 8.34-4.59 11.48 1.33 5.92 6.71 8.04 11.39 5.11 6.09-2.75 6.63-7.78 6.03-12.1l22.87-15c4.46 3.12 11.15 2.61 14.69-2.87 3.32-5.08 1.47-10.3-2.35-13.1l10.63-27.15c7.33-0.18 11.04-6.04 10.74-10.2-0.39-5.21-4.52-8.7-10.24-9.09zm-8.24-24.4 4.46 24.06-1.78 1.55-15.17-5.8 11.35-20.04 1.14 0.23zm-32.41-32.1 2.4 0.23 18.79 15.93 0.18 3.85-2.2 1.71-24.32 6.2-4.46-3.89 9.61-24.03zm-25.8 42.41 10 1.61 8.37 24.22-1.22 0.61-31.58-12.63-0.6-1.38 15.03-12.43zm-42.9 47.88 17.63-24.93 2.28 0.06 10.09 13.08c-3.82 2.05-5.66 5.43-6.05 9.01l-23.35 3.72-0.6-0.94zm24.75 2.82 0.77 2.2-7.15 13.14-1.18 1.54-14.59-11.38 0.3-2.05 21.55-3.73 0.3 0.28zm28.15 30.51-11.12-28.91c2.11-2 2.11-5.62 1.51-8.17l14.24-7.02 2.4 2.89-7.03 41.21zm5.89-51.28-14.24 6.16c-1.78-2.39-4.56-3.69-7.07-3.69l-9.84-13.37 0.23-0.29 30.92 11.19zm2.99 55.59-1.79-1.24 11.23-39.47 2.06-1.12 11.52 16.72c-1.49 3.26-1.79 6.44-1.49 10.7l-21.53 14.41zm29.54-26.59-2.23-0.89-12.71-17.54 0.83-5.27 25.09-4.11 2.11 1.72-13.09 26.09zm9.09-35.81-18.79 5.33-2.9-1.72 6.35-12.75 15.75 6.7-0.41 2.44zm-29.55 1.12-1.49-0.73-7.81-22.31 1.72-1.2 5.79 0.89 1.49-2.33-0.6-2.32-7.45-2.82 0.89-1.83 26.85-3.59 0.6 0.89-19.99 35.35z" fill="url(#paint3_linear_1406_2410)"/>
  <path d="m146.2 109c-1.1-5.97 2.86-10 8.83-9.01-4.93-2.76-10.54 1.6-8.83 9.01z" fill="url(#paint4_linear_1406_2410)"/>
  <path d="m192.8 85.02c-0.83-5.47-5.09-8.27-10.58-6.67 4.94-3.12 10.58 0.29 10.58 6.67z" fill="url(#paint5_linear_1406_2410)"/>
  <path d="m201.2 38.08c5.49-0.29 8.21 5.08 6.37 9.76 0.89-4.91-1.73-8.7-6.37-9.76z" fill="url(#paint6_linear_1406_2410)"/>
  <path d="m230.1 68.08c5.97-0.89 8.87 3.59 8.57 9.01-0.9-4.35-3.51-7.84-8.57-9.01z" fill="url(#paint7_linear_1406_2410)"/>
  <path d="m241.2 112c5.18-1.94 9.11 1.84 8.88 6.63 0.89-5.42-4.11-9.91-8.88-6.63z" fill="url(#paint8_linear_1406_2410)"/>
  <path d="m223.5 157.8c5.18-1.17 9.11 2.05 9.17 7.92-1.49-4.36-4.51-7.34-9.17-7.92z" fill="url(#paint9_linear_1406_2410)"/>
  <path d="m205.1 121.6c-4.05-1.6-7.25 0.46-8.43 2.46 0.9-3.97 5.59-5.35 8.43-2.46z" fill="url(#paint10_linear_1406_2410)"/>
  <path d="m163.5 133.3c-3.48 3.78-3.18 9.78-0.28 12.77-5-1.6-5.6-10.32 0.28-12.77z" fill="url(#paint11_linear_1406_2410)"/>
  <path d="m123.1 142.3c-2.9 3.22-2.3 7.81 0 9.59-2.9-2.32-2.9-7.74 0-9.59z" fill="url(#paint12_linear_1406_2410)"/>
  <path d="m151.4 174.9c0.6-6.8 5.83-7.92 10.9-6.49-4.95-3.44-12.1-1.43-10.9 6.49z" fill="url(#paint13_linear_1406_2410)"/>
  <path d="m21.54 95.04 34.17-59.51-30.98 59.4 22 0.11-25.19 47.1 43.75-54.45-43.75 7.35z" fill="url(#paint14_linear_1406_2410)"/>
  <defs>
    <linearGradient id="paint0_linear_1406_2410" x1="101" x2="101" y1="6" y2="250.7" gradientUnits="userSpaceOnUse">
      <stop stop-color="#42CE9F" offset="0"/>
      <stop stop-color="#24B2CC" offset=".5052"/>
      <stop stop-color="#2489B5" offset="1"/>
    </linearGradient>
    <linearGradient id="paint1_linear_1406_2410" x1="100.3" x2="100.3" y1="6" y2="250.7" gradientUnits="userSpaceOnUse">
      <stop stop-color="#24B2A2" offset="0"/>
      <stop stop-color="#0D718C" offset="1"/>
    </linearGradient>
    <linearGradient id="paint2_linear_1406_2410" x1="51.67" x2="115.9" y1="219.6" y2="138.8" gradientUnits="userSpaceOnUse">
      <stop stop-color="#2489B5" offset="0"/>
      <stop stop-color="#B0E8F5" stop-opacity=".526" offset=".6979"/>
      <stop stop-color="#B0E8F5" stop-opacity=".21" offset="1"/>
    </linearGradient>
    <linearGradient id="paint3_linear_1406_2410" x1="172.3" x2="172.3" y1="34.45" y2="198.4" gradientUnits="userSpaceOnUse">
      <stop stop-color="#37CE9F" offset="0"/>
      <stop stop-color="#24A6CC" offset="1"/>
    </linearGradient>
    <linearGradient id="paint4_linear_1406_2410" x1="150.7" x2="150.7" y1="99.13" y2="108.2" gradientUnits="userSpaceOnUse">
      <stop stop-color="#96D9D5" offset="0"/>
      <stop stop-color="#96D9D5" stop-opacity=".25" offset="1"/>
    </linearGradient>
    <linearGradient id="paint5_linear_1406_2410" x1="187.5" x2="187.5" y1="77.31" y2="84.67" gradientUnits="userSpaceOnUse">
      <stop stop-color="#96D9D5" offset="0"/>
      <stop stop-color="#96D9D5" stop-opacity=".25" offset="1"/>
    </linearGradient>
    <linearGradient id="paint6_linear_1406_2410" x1="204.9" x2="204.9" y1="38" y2="47.84" gradientUnits="userSpaceOnUse">
      <stop stop-color="#96D9D5" offset="0"/>
      <stop stop-color="#96D9D5" stop-opacity=".25" offset="1"/>
    </linearGradient>
    <linearGradient id="paint7_linear_1406_2410" x1="234.4" x2="234.4" y1="67.77" y2="77.09" gradientUnits="userSpaceOnUse">
      <stop stop-color="#96D9D5" offset="0"/>
      <stop stop-color="#96D9D5" stop-opacity=".25" offset="1"/>
    </linearGradient>
    <linearGradient id="paint8_linear_1406_2410" x1="245.6" x2="245.6" y1="110.5" y2="118.6" gradientUnits="userSpaceOnUse">
      <stop stop-color="#96D9D5" offset="0"/>
      <stop stop-color="#96D9D5" stop-opacity=".25" offset="1"/>
    </linearGradient>
    <linearGradient id="paint9_linear_1406_2410" x1="228.1" x2="228.1" y1="157.3" y2="165.7" gradientUnits="userSpaceOnUse">
      <stop stop-color="#96D9D5" offset="0"/>
      <stop stop-color="#96D9D5" stop-opacity=".25" offset="1"/>
    </linearGradient>
    <linearGradient id="paint10_linear_1406_2410" x1="200.8" x2="200.8" y1="120.6" y2="124.1" gradientUnits="userSpaceOnUse">
      <stop stop-color="#96D9D5" offset="0"/>
      <stop stop-color="#96D9D5" stop-opacity=".25" offset="1"/>
    </linearGradient>
    <linearGradient id="paint11_linear_1406_2410" x1="162.1" x2="162.1" y1="131.9" y2="146" gradientUnits="userSpaceOnUse">
      <stop stop-color="#96D9D5" offset="0"/>
      <stop stop-color="#96D9D5" stop-opacity=".25" offset="1"/>
    </linearGradient>
    <linearGradient id="paint12_linear_1406_2410" x1="122.1" x2="122.1" y1="141.4" y2="151.8" gradientUnits="userSpaceOnUse">
      <stop stop-color="#96D9D5" offset="0"/>
      <stop stop-color="#96D9D5" stop-opacity=".25" offset="1"/>
    </linearGradient>
    <linearGradient id="paint13_linear_1406_2410" x1="157" x2="157" y1="166.6" y2="174.9" gradientUnits="userSpaceOnUse">
      <stop stop-color="#96D9D5" offset="0"/>
      <stop stop-color="#96D9D5" stop-opacity=".25" offset="1"/>
    </linearGradient>
    <linearGradient id="paint14_linear_1406_2410" x1="43.42" x2="43.42" y1="35.53" y2="142.1" gradientUnits="userSpaceOnUse">
      <stop stop-color="#42CE9F" offset="0"/>
      <stop stop-color="#66D9C3" offset=".5052"/>
      <stop stop-color="#0D99C2" offset="1"/>
    </linearGradient>
  </defs>
</svg>